# xmcd CD database file
#
# Track frame offsets:
#	150
#	16017
#	35280
#	55165
#	71572
#	89397
#	108595
#	126952
#	142970
#	163615
#	179650
#	200160
#	213025
#	232112
#
# Disc length: 3378 seconds
#
# Revision: 0
# Processed by: cddbd v1.5.1PL0 Copyright (c) Steve Scherf et al.
# Submitted via: CDex 1.51
#
DISCID=c50d300e
DTITLE=deborah - beneath your moon
DYEAR=2002
DGENRE=Jazz
TTITLE0=daddy don't
TTITLE1=love is such a stupid thing
TTITLE2=you and i
TTITLE3=beneath your moon
TTITLE4=muddling through
TTITLE5=claudio
TTITLE6=ancestral voice
TTITLE7=deep in my heart
TTITLE8=the fight
TTITLE9=lilies-o
TTITLE10=no one is your enemy
TTITLE11=back when
TTITLE12=the journey
TTITLE13=jacky
EXTD=YEAR: 2002
EXTT0=
EXTT1=
EXTT2=
EXTT3=
EXTT4=
EXTT5=
EXTT6=
EXTT7=
EXTT8=
EXTT9=
EXTT10=
EXTT11=
EXTT12=
EXTT13=
PLAYORDER=
